<svg width="400" height="135" viewBox="0 0 400 135" fill="none" xmlns="http://www.w3.org/2000/svg">
<path d="M0.5 134.5V0.5H399.5V134.5H0.5Z" fill="white" stroke="#030303"/>
<path d="M20.2559 108.296C18.8086 107.88 17.7539 107.37 17.0918 106.767C16.4355 106.157 16.1074 105.407 16.1074 104.517C16.1074 103.509 16.5088 102.677 17.3115 102.021C18.1201 101.358 19.1689 101.027 20.458 101.027C21.3369 101.027 22.1191 101.197 22.8047 101.537C23.4961 101.877 24.0293 102.346 24.4043 102.943C24.7852 103.541 24.9756 104.194 24.9756 104.903H23.2793C23.2793 104.13 23.0332 103.523 22.541 103.084C22.0488 102.639 21.3545 102.416 20.458 102.416C19.626 102.416 18.9756 102.601 18.5068 102.97C18.0439 103.333 17.8125 103.84 17.8125 104.49C17.8125 105.012 18.0322 105.454 18.4717 105.817C18.917 106.175 19.6699 106.503 20.7305 106.802C21.7969 107.101 22.6289 107.432 23.2266 107.795C23.8301 108.152 24.2754 108.571 24.5625 109.052C24.8555 109.532 25.002 110.098 25.002 110.748C25.002 111.785 24.5977 112.617 23.7891 113.244C22.9805 113.865 21.8994 114.176 20.5459 114.176C19.667 114.176 18.8467 114.009 18.085 113.675C17.3232 113.335 16.7344 112.872 16.3184 112.286C15.9082 111.7 15.7031 111.035 15.7031 110.291H17.3994C17.3994 111.064 17.6836 111.677 18.252 112.128C18.8262 112.573 19.5908 112.796 20.5459 112.796C21.4365 112.796 22.1191 112.614 22.5938 112.251C23.0684 111.888 23.3057 111.393 23.3057 110.766C23.3057 110.139 23.0859 109.655 22.6465 109.315C22.207 108.97 21.4102 108.63 20.2559 108.296ZM30.8643 114.176C29.5752 114.176 28.5264 113.754 27.7178 112.91C26.9092 112.061 26.5049 110.927 26.5049 109.509V109.21C26.5049 108.267 26.6836 107.426 27.041 106.688C27.4043 105.943 27.9082 105.363 28.5527 104.947C29.2031 104.525 29.9062 104.314 30.6621 104.314C31.8984 104.314 32.8594 104.722 33.5449 105.536C34.2305 106.351 34.5732 107.517 34.5732 109.034V109.711H28.1309C28.1543 110.648 28.4268 111.407 28.9482 111.987C29.4756 112.562 30.1436 112.849 30.9521 112.849C31.5264 112.849 32.0127 112.731 32.4111 112.497C32.8096 112.263 33.1582 111.952 33.457 111.565L34.4502 112.339C33.6533 113.563 32.458 114.176 30.8643 114.176ZM30.6621 105.65C30.0059 105.65 29.4551 105.891 29.0098 106.371C28.5645 106.846 28.2891 107.514 28.1836 108.375H32.9473V108.252C32.9004 107.426 32.6777 106.787 32.2793 106.336C31.8809 105.879 31.3418 105.65 30.6621 105.65ZM38.001 104.49L38.0537 105.686C38.7803 104.771 39.7295 104.314 40.9014 104.314C42.9111 104.314 43.9248 105.448 43.9424 107.716V114H42.3164V107.707C42.3105 107.021 42.1523 106.515 41.8418 106.187C41.5371 105.858 41.0596 105.694 40.4092 105.694C39.8818 105.694 39.4189 105.835 39.0205 106.116C38.6221 106.397 38.3115 106.767 38.0889 107.224V114H36.4629V104.49H38.001ZM48.1611 114H46.5352V104.49H48.1611V114ZM46.4033 101.968C46.4033 101.704 46.4824 101.481 46.6406 101.3C46.8047 101.118 47.0449 101.027 47.3613 101.027C47.6777 101.027 47.918 101.118 48.082 101.3C48.2461 101.481 48.3281 101.704 48.3281 101.968C48.3281 102.231 48.2461 102.451 48.082 102.627C47.918 102.803 47.6777 102.891 47.3613 102.891C47.0449 102.891 46.8047 102.803 46.6406 102.627C46.4824 102.451 46.4033 102.231 46.4033 101.968ZM50.3408 109.157C50.3408 108.226 50.5225 107.388 50.8857 106.644C51.2549 105.899 51.7646 105.325 52.415 104.921C53.0713 104.517 53.8184 104.314 54.6562 104.314C55.9512 104.314 56.9971 104.763 57.7939 105.659C58.5967 106.556 58.998 107.748 58.998 109.236V109.351C58.998 110.276 58.8193 111.108 58.4619 111.847C58.1104 112.579 57.6035 113.15 56.9414 113.561C56.2852 113.971 55.5293 114.176 54.6738 114.176C53.3848 114.176 52.3389 113.728 51.5361 112.831C50.7393 111.935 50.3408 110.748 50.3408 109.271V109.157ZM51.9756 109.351C51.9756 110.405 52.2188 111.252 52.7051 111.891C53.1973 112.529 53.8535 112.849 54.6738 112.849C55.5 112.849 56.1562 112.526 56.6426 111.882C57.1289 111.231 57.3721 110.323 57.3721 109.157C57.3721 108.114 57.123 107.271 56.625 106.626C56.1328 105.976 55.4766 105.65 54.6562 105.65C53.8535 105.65 53.2061 105.97 52.7139 106.608C52.2217 107.247 51.9756 108.161 51.9756 109.351ZM65.6338 105.949C65.3877 105.908 65.1211 105.888 64.834 105.888C63.7676 105.888 63.0439 106.342 62.6631 107.25V114H61.0371V104.49H62.6191L62.6455 105.589C63.1787 104.739 63.9346 104.314 64.9131 104.314C65.2295 104.314 65.4697 104.355 65.6338 104.438V105.949ZM77.8154 101.194V102.574H77.5166C76.251 102.598 75.2432 102.973 74.4932 103.699C73.7432 104.426 73.3096 105.448 73.1924 106.767C73.8662 105.993 74.7861 105.606 75.9521 105.606C77.0654 105.606 77.9531 105.999 78.6152 106.784C79.2832 107.569 79.6172 108.583 79.6172 109.825C79.6172 111.144 79.2568 112.198 78.5361 112.989C77.8213 113.78 76.8604 114.176 75.6533 114.176C74.4287 114.176 73.4355 113.707 72.6738 112.77C71.9121 111.826 71.5312 110.613 71.5312 109.131V108.507C71.5312 106.151 72.0322 104.353 73.0342 103.11C74.042 101.862 75.5391 101.224 77.5254 101.194H77.8154ZM75.6797 106.96C75.123 106.96 74.6104 107.127 74.1416 107.461C73.6729 107.795 73.3477 108.214 73.166 108.718V109.315C73.166 110.37 73.4033 111.22 73.8779 111.864C74.3525 112.509 74.9443 112.831 75.6533 112.831C76.3857 112.831 76.96 112.562 77.376 112.022C77.7979 111.483 78.0088 110.777 78.0088 109.904C78.0088 109.025 77.7949 108.316 77.3672 107.777C76.9453 107.232 76.3828 106.96 75.6797 106.96ZM82.2891 107.584L82.9395 101.203H89.4961V102.706H84.3193L83.9326 106.195C84.5596 105.826 85.2715 105.642 86.0684 105.642C87.2344 105.642 88.1602 106.028 88.8457 106.802C89.5312 107.569 89.874 108.609 89.874 109.922C89.874 111.24 89.5166 112.28 88.8018 113.042C88.0928 113.798 87.0996 114.176 85.8223 114.176C84.6914 114.176 83.7686 113.862 83.0537 113.235C82.3389 112.608 81.9316 111.741 81.832 110.634H83.3701C83.4697 111.366 83.7305 111.92 84.1523 112.295C84.5742 112.664 85.1309 112.849 85.8223 112.849C86.5781 112.849 87.1699 112.591 87.5977 112.075C88.0312 111.56 88.248 110.848 88.248 109.939C88.248 109.084 88.0137 108.398 87.5449 107.883C87.082 107.361 86.4639 107.101 85.6904 107.101C84.9814 107.101 84.4248 107.256 84.0205 107.566L83.5898 107.918L82.2891 107.584ZM96.4746 107.136H100.043V108.674H96.4746V112.717H94.8398V108.674H91.2715V107.136H94.8398V103.4H96.4746V107.136ZM106.433 108.806C106.433 107.481 106.608 106.21 106.96 104.991C107.317 103.772 107.848 102.665 108.551 101.669C109.254 100.673 109.983 99.9697 110.739 99.5596L111.073 100.632C110.218 101.288 109.515 102.29 108.964 103.638C108.419 104.985 108.12 106.494 108.067 108.164L108.059 108.911C108.059 111.173 108.472 113.136 109.298 114.8C109.796 115.796 110.388 116.575 111.073 117.138L110.739 118.131C109.96 117.697 109.216 116.971 108.507 115.951C107.124 113.959 106.433 111.577 106.433 108.806ZM117.823 114H116.188V103.163L112.91 104.367V102.891L117.568 101.142H117.823V114ZM130.611 108.542C130.611 110.446 130.286 111.861 129.636 112.787C128.985 113.713 127.969 114.176 126.586 114.176C125.221 114.176 124.21 113.725 123.554 112.822C122.897 111.914 122.558 110.561 122.534 108.762V106.591C122.534 104.71 122.859 103.312 123.51 102.398C124.16 101.484 125.18 101.027 126.568 101.027C127.945 101.027 128.959 101.47 129.609 102.354C130.26 103.233 130.594 104.593 130.611 106.433V108.542ZM128.985 106.318C128.985 104.941 128.792 103.939 128.405 103.312C128.019 102.68 127.406 102.363 126.568 102.363C125.736 102.363 125.13 102.677 124.749 103.304C124.368 103.931 124.172 104.895 124.16 106.195V108.797C124.16 110.18 124.359 111.202 124.758 111.864C125.162 112.521 125.771 112.849 126.586 112.849C127.389 112.849 127.983 112.538 128.37 111.917C128.763 111.296 128.968 110.317 128.985 108.981V106.318ZM143.558 109.245H140.183C140.206 110.388 140.481 111.267 141.009 111.882C141.536 112.497 142.283 112.805 143.25 112.805C143.93 112.805 144.568 112.705 145.166 112.506L145.342 113.912C144.639 114.088 143.936 114.176 143.232 114.176C141.779 114.176 140.634 113.748 139.796 112.893C138.964 112.031 138.53 110.815 138.495 109.245H136.931V108.155H138.495V106.951H136.931V105.853H138.495C138.554 104.317 138.999 103.131 139.831 102.293C140.669 101.449 141.8 101.027 143.224 101.027C143.845 101.027 144.551 101.118 145.342 101.3L145.166 102.724C144.527 102.519 143.886 102.416 143.241 102.416C142.28 102.416 141.539 102.715 141.018 103.312C140.502 103.904 140.227 104.751 140.191 105.853H143.558V106.951H140.183V108.155H143.558V109.245ZM151.187 108.894C151.187 110.2 151.014 111.454 150.668 112.655C150.328 113.851 149.804 114.955 149.095 115.969C148.392 116.982 147.653 117.703 146.88 118.131L146.537 117.138C147.439 116.446 148.163 115.374 148.708 113.921C149.259 112.462 149.54 110.845 149.552 109.069V108.788C149.552 107.558 149.423 106.415 149.165 105.36C148.907 104.3 148.547 103.351 148.084 102.513C147.627 101.675 147.111 101.021 146.537 100.553L146.88 99.5596C147.653 99.9873 148.389 100.702 149.086 101.704C149.789 102.706 150.313 103.811 150.659 105.018C151.011 106.225 151.187 107.517 151.187 108.894Z" fill="#030303"/>
<path d="M16.4854 72V59.2031H20.6689C22.0576 59.2031 23.1006 59.4902 23.7979 60.0645C24.501 60.6387 24.8525 61.4883 24.8525 62.6133C24.8525 63.2109 24.6826 63.7412 24.3428 64.2041C24.0029 64.6611 23.54 65.0156 22.9541 65.2676C23.6455 65.4609 24.1904 65.8301 24.5889 66.375C24.9932 66.9141 25.1953 67.5586 25.1953 68.3086C25.1953 69.457 24.8232 70.3594 24.0791 71.0156C23.335 71.6719 22.2832 72 20.9238 72H16.4854ZM18.1729 66.0146V70.6201H20.959C21.7441 70.6201 22.3623 70.418 22.8135 70.0137C23.2705 69.6035 23.499 69.041 23.499 68.3262C23.499 66.7852 22.6611 66.0146 20.9854 66.0146H18.1729ZM18.1729 64.6611H20.7217C21.46 64.6611 22.0488 64.4766 22.4883 64.1074C22.9336 63.7383 23.1562 63.2373 23.1562 62.6045C23.1562 61.9014 22.9512 61.3916 22.541 61.0752C22.1309 60.7529 21.5068 60.5918 20.6689 60.5918H18.1729V64.6611ZM33.3164 72C33.2227 71.8125 33.1465 71.4785 33.0879 70.998C32.332 71.7832 31.4297 72.1758 30.3809 72.1758C29.4434 72.1758 28.6729 71.9121 28.0693 71.3848C27.4717 70.8516 27.1729 70.1777 27.1729 69.3633C27.1729 68.373 27.5479 67.6055 28.2979 67.0605C29.0537 66.5098 30.1143 66.2344 31.4795 66.2344H33.0615V65.4873C33.0615 64.9189 32.8916 64.4678 32.5518 64.1338C32.2119 63.7939 31.7109 63.624 31.0488 63.624C30.4688 63.624 29.9824 63.7705 29.5898 64.0635C29.1973 64.3564 29.001 64.7109 29.001 65.127H27.3662C27.3662 64.6523 27.5332 64.1953 27.8672 63.7559C28.207 63.3105 28.6641 62.959 29.2383 62.7012C29.8184 62.4434 30.4541 62.3145 31.1455 62.3145C32.2412 62.3145 33.0996 62.5898 33.7207 63.1406C34.3418 63.6855 34.6641 64.4385 34.6875 65.3994V69.7764C34.6875 70.6494 34.7988 71.3438 35.0215 71.8594V72H33.3164ZM30.6182 70.7607C31.1279 70.7607 31.6113 70.6289 32.0684 70.3652C32.5254 70.1016 32.8564 69.7588 33.0615 69.3369V67.3857H31.7871C29.7949 67.3857 28.7988 67.9688 28.7988 69.1348C28.7988 69.6445 28.9688 70.043 29.3086 70.3301C29.6484 70.6172 30.085 70.7607 30.6182 70.7607ZM42.7734 69.4775C42.7734 69.0381 42.6064 68.6982 42.2725 68.458C41.9443 68.2119 41.3672 68.001 40.541 67.8252C39.7207 67.6494 39.0674 67.4385 38.5811 67.1924C38.1006 66.9463 37.7432 66.6533 37.5088 66.3135C37.2803 65.9736 37.166 65.5693 37.166 65.1006C37.166 64.3213 37.4941 63.6621 38.1504 63.123C38.8125 62.584 39.6562 62.3145 40.6816 62.3145C41.7598 62.3145 42.6328 62.5928 43.3008 63.1494C43.9746 63.7061 44.3115 64.418 44.3115 65.2852H42.6768C42.6768 64.8398 42.4863 64.4561 42.1055 64.1338C41.7305 63.8115 41.2559 63.6504 40.6816 63.6504C40.0898 63.6504 39.627 63.7793 39.293 64.0371C38.959 64.2949 38.792 64.6318 38.792 65.0479C38.792 65.4404 38.9473 65.7363 39.2578 65.9355C39.5684 66.1348 40.1279 66.3252 40.9365 66.5068C41.751 66.6885 42.4102 66.9053 42.9141 67.1572C43.418 67.4092 43.79 67.7139 44.0303 68.0713C44.2764 68.4229 44.3994 68.8535 44.3994 69.3633C44.3994 70.2129 44.0596 70.8955 43.3799 71.4111C42.7002 71.9209 41.8184 72.1758 40.7344 72.1758C39.9727 72.1758 39.2988 72.041 38.7129 71.7715C38.127 71.502 37.667 71.127 37.333 70.6465C37.0049 70.1602 36.8408 69.6357 36.8408 69.0732H38.4668C38.4961 69.6182 38.7129 70.0518 39.1172 70.374C39.5273 70.6904 40.0664 70.8486 40.7344 70.8486C41.3496 70.8486 41.8418 70.7256 42.2109 70.4795C42.5859 70.2275 42.7734 69.8936 42.7734 69.4775ZM48.2842 72H46.6582V62.4902H48.2842V72ZM46.5264 59.9678C46.5264 59.7041 46.6055 59.4814 46.7637 59.2998C46.9277 59.1182 47.168 59.0273 47.4844 59.0273C47.8008 59.0273 48.041 59.1182 48.2051 59.2998C48.3691 59.4814 48.4512 59.7041 48.4512 59.9678C48.4512 60.2314 48.3691 60.4512 48.2051 60.627C48.041 60.8027 47.8008 60.8906 47.4844 60.8906C47.168 60.8906 46.9277 60.8027 46.7637 60.627C46.6055 60.4512 46.5264 60.2314 46.5264 59.9678ZM54.709 70.8486C55.2891 70.8486 55.7959 70.6729 56.2295 70.3213C56.6631 69.9697 56.9033 69.5303 56.9502 69.0029H58.4883C58.459 69.5479 58.2715 70.0664 57.9258 70.5586C57.5801 71.0508 57.1172 71.4434 56.5371 71.7363C55.9629 72.0293 55.3535 72.1758 54.709 72.1758C53.4141 72.1758 52.3828 71.7451 51.6152 70.8838C50.8535 70.0166 50.4727 68.833 50.4727 67.333V67.0605C50.4727 66.1348 50.6426 65.3115 50.9824 64.5908C51.3223 63.8701 51.8086 63.3105 52.4414 62.9121C53.0801 62.5137 53.833 62.3145 54.7002 62.3145C55.7666 62.3145 56.6514 62.6338 57.3545 63.2725C58.0635 63.9111 58.4414 64.7402 58.4883 65.7598H56.9502C56.9033 65.1445 56.6689 64.6406 56.2471 64.248C55.8311 63.8496 55.3154 63.6504 54.7002 63.6504C53.874 63.6504 53.2324 63.9492 52.7754 64.5469C52.3242 65.1387 52.0986 65.9971 52.0986 67.1221V67.4297C52.0986 68.5254 52.3242 69.3691 52.7754 69.9609C53.2266 70.5527 53.8711 70.8486 54.709 70.8486ZM69.958 72H68.3232V61.1631L65.0449 62.3672V60.8906L69.7031 59.1416H69.958V72ZM82.4824 62.543C82.4824 63.1816 82.3125 63.75 81.9727 64.248C81.6387 64.7461 81.1846 65.1357 80.6104 65.417C81.2783 65.7041 81.8057 66.123 82.1924 66.6738C82.585 67.2246 82.7812 67.8486 82.7812 68.5459C82.7812 69.6533 82.4062 70.5352 81.6562 71.1914C80.9121 71.8477 79.9307 72.1758 78.7119 72.1758C77.4814 72.1758 76.4941 71.8477 75.75 71.1914C75.0117 70.5293 74.6426 69.6475 74.6426 68.5459C74.6426 67.8545 74.8301 67.2305 75.2051 66.6738C75.5859 66.1172 76.1104 65.6953 76.7783 65.4082C76.21 65.127 75.7617 64.7373 75.4336 64.2393C75.1055 63.7412 74.9414 63.1758 74.9414 62.543C74.9414 61.4648 75.2871 60.6094 75.9785 59.9766C76.6699 59.3438 77.5811 59.0273 78.7119 59.0273C79.8369 59.0273 80.7451 59.3438 81.4365 59.9766C82.1338 60.6094 82.4824 61.4648 82.4824 62.543ZM81.1553 68.5107C81.1553 67.7959 80.9268 67.2129 80.4697 66.7617C80.0186 66.3105 79.4268 66.085 78.6943 66.085C77.9619 66.085 77.373 66.3076 76.9277 66.7529C76.4883 67.1982 76.2686 67.7842 76.2686 68.5107C76.2686 69.2373 76.4824 69.8086 76.9102 70.2246C77.3438 70.6406 77.9443 70.8486 78.7119 70.8486C79.4736 70.8486 80.0713 70.6406 80.5049 70.2246C80.9385 69.8027 81.1553 69.2314 81.1553 68.5107ZM78.7119 60.3633C78.0732 60.3633 77.5547 60.5625 77.1562 60.9609C76.7637 61.3535 76.5674 61.8896 76.5674 62.5693C76.5674 63.2197 76.7607 63.7471 77.1475 64.1514C77.54 64.5498 78.0615 64.749 78.7119 64.749C79.3623 64.749 79.8809 64.5498 80.2676 64.1514C80.6602 63.7471 80.8564 63.2197 80.8564 62.5693C80.8564 61.9189 80.6543 61.3887 80.25 60.9785C79.8457 60.5684 79.333 60.3633 78.7119 60.3633ZM89.6543 65.1357H93.2227V66.6738H89.6543V70.7168H88.0195V66.6738H84.4512V65.1357H88.0195V61.4004H89.6543V65.1357ZM99.6123 66.8057C99.6123 65.4814 99.7881 64.21 100.14 62.9912C100.497 61.7725 101.027 60.665 101.73 59.6689C102.434 58.6729 103.163 57.9697 103.919 57.5596L104.253 58.6318C103.397 59.2881 102.694 60.29 102.144 61.6377C101.599 62.9854 101.3 64.4941 101.247 66.1641L101.238 66.9111C101.238 69.1729 101.651 71.1357 102.478 72.7998C102.976 73.7959 103.567 74.5752 104.253 75.1377L103.919 76.1309C103.14 75.6973 102.396 74.9707 101.687 73.9512C100.304 71.959 99.6123 69.5771 99.6123 66.8057ZM114.044 72H105.659V70.8311L110.089 65.9092C110.745 65.165 111.196 64.5615 111.442 64.0986C111.694 63.6299 111.82 63.1465 111.82 62.6484C111.82 61.9805 111.618 61.4326 111.214 61.0049C110.81 60.5771 110.271 60.3633 109.597 60.3633C108.788 60.3633 108.158 60.5947 107.707 61.0576C107.262 61.5146 107.039 62.1533 107.039 62.9736H105.413C105.413 61.7959 105.791 60.8438 106.547 60.1172C107.309 59.3906 108.325 59.0273 109.597 59.0273C110.786 59.0273 111.727 59.3408 112.418 59.9678C113.109 60.5889 113.455 61.418 113.455 62.4551C113.455 63.7148 112.652 65.2148 111.047 66.9551L107.619 70.6729H114.044V72ZM123.791 66.542C123.791 68.4463 123.466 69.8613 122.815 70.7871C122.165 71.7129 121.148 72.1758 119.766 72.1758C118.4 72.1758 117.39 71.7246 116.733 70.8223C116.077 69.9141 115.737 68.5605 115.714 66.7617V64.5908C115.714 62.71 116.039 61.3125 116.689 60.3984C117.34 59.4844 118.359 59.0273 119.748 59.0273C121.125 59.0273 122.139 59.4697 122.789 60.3545C123.439 61.2334 123.773 62.5928 123.791 64.4326V66.542ZM122.165 64.3184C122.165 62.9414 121.972 61.9395 121.585 61.3125C121.198 60.6797 120.586 60.3633 119.748 60.3633C118.916 60.3633 118.31 60.6768 117.929 61.3037C117.548 61.9307 117.352 62.8945 117.34 64.1953V66.7969C117.34 68.1797 117.539 69.2021 117.938 69.8643C118.342 70.5205 118.951 70.8486 119.766 70.8486C120.568 70.8486 121.163 70.5381 121.55 69.917C121.942 69.2959 122.147 68.3174 122.165 66.9814V64.3184ZM136.737 67.2451H133.362C133.386 68.3877 133.661 69.2666 134.188 69.8818C134.716 70.4971 135.463 70.8047 136.43 70.8047C137.109 70.8047 137.748 70.7051 138.346 70.5059L138.521 71.9121C137.818 72.0879 137.115 72.1758 136.412 72.1758C134.959 72.1758 133.813 71.748 132.976 70.8926C132.144 70.0312 131.71 68.8154 131.675 67.2451H130.11V66.1553H131.675V64.9512H130.11V63.8525H131.675C131.733 62.3174 132.179 61.1309 133.011 60.293C133.849 59.4492 134.979 59.0273 136.403 59.0273C137.024 59.0273 137.73 59.1182 138.521 59.2998L138.346 60.7236C137.707 60.5186 137.065 60.416 136.421 60.416C135.46 60.416 134.719 60.7148 134.197 61.3125C133.682 61.9043 133.406 62.751 133.371 63.8525H136.737V64.9512H133.362V66.1553H136.737V67.2451ZM144.366 66.8936C144.366 68.2002 144.193 69.4541 143.848 70.6553C143.508 71.8506 142.983 72.9551 142.274 73.9688C141.571 74.9824 140.833 75.7031 140.06 76.1309L139.717 75.1377C140.619 74.4463 141.343 73.374 141.888 71.9209C142.438 70.4619 142.72 68.8447 142.731 67.0693V66.7881C142.731 65.5576 142.603 64.415 142.345 63.3604C142.087 62.2998 141.727 61.3506 141.264 60.5127C140.807 59.6748 140.291 59.0215 139.717 58.5527L140.06 57.5596C140.833 57.9873 141.568 58.7021 142.266 59.7041C142.969 60.7061 143.493 61.8105 143.839 63.0176C144.19 64.2246 144.366 65.5166 144.366 66.8936Z" fill="#030303"/>
<path d="M15.81 24.82H15.9C15.996 24.82 16.08 24.79 16.152 24.73C16.224 24.658 16.284 24.574 16.332 24.478C16.392 24.382 16.434 24.28 16.458 24.172C16.494 24.064 16.512 23.962 16.512 23.866V14.236C16.512 14.152 16.494 14.056 16.458 13.948C16.434 13.84 16.392 13.738 16.332 13.642C16.284 13.546 16.224 13.468 16.152 13.408C16.08 13.336 15.996 13.3 15.9 13.3H15.81V13.12H22.74V14.794H22.56C22.536 14.518 22.428 14.278 22.236 14.074C22.044 13.858 21.744 13.75 21.336 13.75H17.718V18.304H20.706C20.982 18.304 21.21 18.22 21.39 18.052C21.582 17.884 21.678 17.686 21.678 17.458H21.858V19.708H21.678C21.678 19.492 21.588 19.306 21.408 19.15C21.228 18.994 20.994 18.916 20.706 18.916H17.718V24.37H21.66C21.888 24.37 22.086 24.316 22.254 24.208C22.422 24.1 22.56 23.974 22.668 23.83C22.788 23.674 22.872 23.512 22.92 23.344C22.98 23.164 23.01 23.014 23.01 22.894H23.19V25H15.81V24.82ZM31.7823 23.83C31.7823 23.926 31.7943 24.034 31.8183 24.154C31.8423 24.262 31.8783 24.364 31.9263 24.46C31.9863 24.556 32.0463 24.64 32.1063 24.712C32.1783 24.784 32.2623 24.82 32.3583 24.82V25H30.0363V24.82C30.1203 24.82 30.1983 24.784 30.2703 24.712C30.3423 24.64 30.4023 24.556 30.4503 24.46C30.5103 24.364 30.5523 24.262 30.5763 24.154C30.6003 24.034 30.6123 23.926 30.6123 23.83V20.482C30.6123 20.05 30.5523 19.672 30.4323 19.348C30.3123 19.024 30.1503 18.754 29.9463 18.538C29.7423 18.322 29.5083 18.166 29.2443 18.07C28.9923 17.962 28.7343 17.908 28.4703 17.908C28.2063 17.908 27.9423 17.962 27.6783 18.07C27.4263 18.178 27.1983 18.322 26.9943 18.502C26.8023 18.67 26.6403 18.874 26.5083 19.114C26.3883 19.342 26.3283 19.582 26.3283 19.834V23.83C26.3283 23.926 26.3403 24.034 26.3643 24.154C26.3883 24.262 26.4243 24.364 26.4723 24.46C26.5323 24.556 26.5923 24.64 26.6523 24.712C26.7243 24.784 26.8083 24.82 26.9043 24.82V25H24.5643V24.82C24.6483 24.82 24.7263 24.784 24.7983 24.712C24.8703 24.64 24.9303 24.556 24.9783 24.46C25.0383 24.364 25.0803 24.262 25.1043 24.154C25.1283 24.034 25.1403 23.926 25.1403 23.83V18.862C25.1403 18.658 25.1103 18.466 25.0503 18.286C24.9903 18.094 24.8163 17.992 24.5283 17.98V17.818L26.3283 17.242V18.232C26.4123 18.136 26.5203 18.034 26.6523 17.926C26.7843 17.806 26.9403 17.698 27.1203 17.602C27.3123 17.494 27.5283 17.41 27.7683 17.35C28.0203 17.278 28.3143 17.242 28.6503 17.242C29.2143 17.242 29.6943 17.338 30.0903 17.53C30.4863 17.722 30.8103 17.974 31.0623 18.286C31.3143 18.586 31.4943 18.922 31.6023 19.294C31.7223 19.654 31.7823 20.008 31.7823 20.356V23.83ZM35.8904 18.052V22.39C35.8904 22.702 35.8964 22.984 35.9084 23.236C35.9204 23.488 35.9504 23.698 35.9984 23.866C36.0464 24.034 36.1184 24.166 36.2144 24.262C36.3104 24.346 36.4424 24.388 36.6104 24.388C36.8624 24.388 37.0964 24.268 37.3124 24.028C37.5404 23.788 37.6844 23.5 37.7444 23.164H37.9064V24.478C37.7984 24.478 37.7084 24.514 37.6364 24.586C37.5404 24.67 37.4024 24.76 37.2224 24.856C37.0544 24.952 36.7964 25 36.4484 25C36.0164 25 35.6804 24.916 35.4404 24.748C35.2004 24.58 35.0264 24.358 34.9184 24.082C34.8104 23.806 34.7444 23.5 34.7204 23.164C34.7084 22.828 34.7024 22.486 34.7024 22.138V18.052H33.6944V17.44H34.7024V15.838C34.7024 15.634 34.6724 15.448 34.6124 15.28C34.5644 15.1 34.3904 15.004 34.0904 14.992V14.812L35.8904 14.236V17.44H37.9064V18.052H35.8904ZM43.6512 18.754C43.5072 18.514 43.3572 18.364 43.2012 18.304C43.0452 18.244 42.8652 18.214 42.6612 18.214C42.5292 18.214 42.3852 18.244 42.2292 18.304C42.0852 18.364 41.9412 18.442 41.7972 18.538C41.6532 18.634 41.5092 18.742 41.3652 18.862C41.2332 18.97 41.1192 19.072 41.0232 19.168V23.848C41.0232 23.944 41.0352 24.046 41.0592 24.154C41.0832 24.262 41.1192 24.37 41.1672 24.478C41.2272 24.574 41.2872 24.658 41.3472 24.73C41.4192 24.79 41.5032 24.82 41.5992 24.82V25H39.2592V24.82C39.3432 24.82 39.4212 24.79 39.4932 24.73C39.5652 24.658 39.6252 24.574 39.6732 24.478C39.7332 24.37 39.7752 24.262 39.7992 24.154C39.8232 24.046 39.8352 23.944 39.8352 23.848V18.826C39.8352 18.658 39.7812 18.49 39.6732 18.322C39.5652 18.154 39.4092 18.046 39.2052 17.998V17.854L41.0232 17.314V18.394C41.1312 18.262 41.2452 18.136 41.3652 18.016C41.4852 17.884 41.6172 17.77 41.7612 17.674C41.9172 17.566 42.0852 17.482 42.2652 17.422C42.4452 17.35 42.6552 17.314 42.8952 17.314C43.0632 17.314 43.2792 17.35 43.5432 17.422C43.8072 17.494 44.0232 17.572 44.1912 17.656L43.6512 18.754ZM48.2037 27.574C48.0357 28.078 47.8197 28.42 47.5557 28.6C47.3037 28.78 47.0397 28.87 46.7637 28.87C46.5837 28.87 46.4217 28.846 46.2777 28.798C46.1457 28.75 46.0257 28.69 45.9177 28.618C45.8217 28.558 45.7437 28.498 45.6837 28.438C45.6237 28.378 45.5877 28.33 45.5757 28.294L46.1697 26.836C46.2297 27.052 46.2897 27.214 46.3497 27.322C46.4097 27.442 46.4937 27.55 46.6017 27.646C46.7097 27.742 46.8417 27.79 46.9977 27.79C47.2857 27.79 47.5137 27.58 47.6817 27.16L48.5637 24.946L45.6657 18.394C45.6057 18.25 45.5037 18.088 45.3597 17.908C45.2277 17.716 45.0417 17.62 44.8017 17.62V17.44H47.1777V17.62C47.1297 17.62 47.0697 17.662 46.9977 17.746C46.9257 17.83 46.8897 17.938 46.8897 18.07C46.8897 18.178 46.9137 18.274 46.9617 18.358L49.1757 23.452L51.2997 18.25C51.3357 18.166 51.3537 18.088 51.3537 18.016C51.3537 17.896 51.3117 17.8 51.2277 17.728C51.1557 17.656 51.0777 17.62 50.9937 17.62V17.44H52.7397V17.62C52.5477 17.62 52.3797 17.704 52.2357 17.872C52.1037 18.028 51.9957 18.208 51.9117 18.412L48.2037 27.574ZM63.0788 24.82H63.1688V25H60.6128V24.82H60.7028C60.7988 24.82 60.8828 24.784 60.9548 24.712C61.0268 24.64 61.0868 24.556 61.1348 24.46C61.1948 24.364 61.2368 24.262 61.2608 24.154C61.2848 24.034 61.2968 23.926 61.2968 23.83V13.786H59.2088C59.0168 13.786 58.8488 13.828 58.7048 13.912C58.5608 13.996 58.4408 14.104 58.3448 14.236C58.2488 14.356 58.1768 14.494 58.1288 14.65C58.0808 14.794 58.0568 14.938 58.0568 15.082H57.8768V13.12H65.9588V15.082H65.7788C65.7788 14.938 65.7548 14.794 65.7068 14.65C65.6588 14.494 65.5868 14.356 65.4908 14.236C65.3948 14.104 65.2748 13.996 65.1308 13.912C64.9868 13.828 64.8188 13.786 64.6268 13.786H62.5028V23.83C62.5028 23.926 62.5148 24.034 62.5388 24.154C62.5628 24.262 62.5988 24.364 62.6468 24.46C62.7068 24.556 62.7668 24.64 62.8268 24.712C62.8988 24.784 62.9828 24.82 63.0788 24.82ZM66.7749 25V24.82C66.8709 24.82 66.9549 24.784 67.0269 24.712C67.0989 24.64 67.1589 24.556 67.2069 24.46C67.2549 24.364 67.2909 24.262 67.3149 24.154C67.3389 24.034 67.3509 23.926 67.3509 23.83V18.844C67.3509 18.64 67.3209 18.448 67.2609 18.268C67.2009 18.076 67.0269 17.974 66.7389 17.962V17.8L68.5389 17.224V23.83C68.5389 23.926 68.5509 24.034 68.5749 24.154C68.5989 24.262 68.6349 24.364 68.6829 24.46C68.7309 24.556 68.7909 24.64 68.8629 24.712C68.9349 24.784 69.0189 24.82 69.1149 24.82V25H66.7749ZM66.8649 15.496C66.8649 15.256 66.9429 15.052 67.0989 14.884C67.2669 14.716 67.4709 14.632 67.7109 14.632C67.9509 14.632 68.1549 14.716 68.3229 14.884C68.4909 15.052 68.5749 15.256 68.5749 15.496C68.5749 15.736 68.4909 15.934 68.3229 16.09C68.1549 16.246 67.9509 16.324 67.7109 16.324C67.4709 16.324 67.2669 16.246 67.0989 16.09C66.9429 15.934 66.8649 15.736 66.8649 15.496ZM77.6825 24.352C77.5865 24.352 77.4965 24.376 77.4125 24.424C77.3285 24.46 77.2325 24.508 77.1245 24.568C76.9205 24.688 76.6625 24.814 76.3505 24.946C76.0385 25.066 75.6305 25.126 75.1265 25.126C74.5145 25.126 73.9445 25.03 73.4165 24.838C72.9005 24.634 72.4505 24.358 72.0665 24.01C71.6945 23.65 71.4005 23.236 71.1845 22.768C70.9805 22.288 70.8785 21.772 70.8785 21.22C70.8785 20.704 70.9685 20.212 71.1485 19.744C71.3405 19.276 71.6105 18.862 71.9585 18.502C72.3065 18.142 72.7325 17.854 73.2365 17.638C73.7525 17.422 74.3345 17.314 74.9825 17.314C75.4265 17.314 75.7865 17.368 76.0625 17.476C76.3385 17.572 76.5725 17.668 76.7645 17.764C76.8725 17.824 76.9745 17.872 77.0705 17.908C77.1785 17.944 77.2865 17.962 77.3945 17.962V19.33H77.2145C77.1545 19.102 77.0465 18.904 76.8905 18.736C76.7345 18.556 76.5545 18.406 76.3505 18.286C76.1465 18.166 75.9245 18.076 75.6845 18.016C75.4445 17.956 75.2105 17.926 74.9825 17.926C74.4905 17.926 74.0585 18.016 73.6865 18.196C73.3145 18.364 73.0085 18.592 72.7685 18.88C72.5285 19.156 72.3485 19.474 72.2285 19.834C72.1085 20.194 72.0485 20.566 72.0485 20.95C72.0485 21.394 72.1205 21.832 72.2645 22.264C72.4085 22.684 72.6125 23.062 72.8765 23.398C73.1525 23.734 73.4825 24.004 73.8665 24.208C74.2505 24.412 74.6825 24.514 75.1625 24.514C75.4985 24.514 75.8045 24.466 76.0805 24.37C76.3685 24.274 76.6085 24.148 76.8005 23.992C77.0045 23.836 77.1665 23.668 77.2865 23.488C77.4065 23.296 77.4785 23.116 77.5025 22.948H77.6825V24.352ZM84.8743 25C84.6703 25 84.4783 24.958 84.2983 24.874C84.1303 24.778 83.9803 24.676 83.8483 24.568C83.6923 24.436 83.5483 24.292 83.4163 24.136L81.0943 21.148L80.7163 21.526V23.866C80.7163 23.95 80.7283 24.046 80.7523 24.154C80.7763 24.262 80.8123 24.37 80.8603 24.478C80.9203 24.574 80.9863 24.658 81.0583 24.73C81.1303 24.79 81.2143 24.82 81.3103 24.82V25H78.9703V24.82C79.0543 24.82 79.1323 24.79 79.2043 24.73C79.2763 24.658 79.3363 24.574 79.3843 24.478C79.4323 24.382 79.4683 24.28 79.4923 24.172C79.5163 24.064 79.5283 23.962 79.5283 23.866V14.704C79.5283 14.536 79.4743 14.368 79.3663 14.2C79.2583 14.032 79.1143 13.942 78.9343 13.93V13.75L80.7163 13.192V20.698L83.6323 17.962C83.6923 17.902 83.7223 17.83 83.7223 17.746C83.7223 17.662 83.6803 17.62 83.5963 17.62V17.44H85.2163V17.62C85.1443 17.62 85.0663 17.638 84.9823 17.674C84.9103 17.71 84.8383 17.752 84.7663 17.8C84.6823 17.848 84.5983 17.908 84.5143 17.98L81.9583 20.356L84.6223 23.722C84.7783 23.938 84.9343 24.124 85.0903 24.28C85.2223 24.412 85.3603 24.538 85.5043 24.658C85.6603 24.766 85.7923 24.82 85.9003 24.82V25H84.8743ZM88.1496 21.364C88.1976 21.784 88.2996 22.186 88.4556 22.57C88.6116 22.942 88.8156 23.272 89.0676 23.56C89.3316 23.848 89.6496 24.082 90.0216 24.262C90.3936 24.43 90.8256 24.514 91.3176 24.514C91.5816 24.514 91.8576 24.478 92.1456 24.406C92.4456 24.322 92.7216 24.208 92.9736 24.064C93.2256 23.92 93.4476 23.746 93.6396 23.542C93.8436 23.326 93.9816 23.086 94.0536 22.822H94.2156V24.172C94.1436 24.172 94.0596 24.196 93.9636 24.244C93.8796 24.292 93.7776 24.352 93.6576 24.424C93.4176 24.568 93.0936 24.724 92.6856 24.892C92.2776 25.048 91.7376 25.126 91.0656 25.126C90.5256 25.126 90.0096 25.048 89.5176 24.892C89.0376 24.736 88.6116 24.496 88.2396 24.172C87.8676 23.848 87.5676 23.434 87.3396 22.93C87.1236 22.426 87.0156 21.826 87.0156 21.13C87.0156 20.686 87.0876 20.236 87.2316 19.78C87.3876 19.324 87.6156 18.916 87.9156 18.556C88.2276 18.184 88.6236 17.884 89.1036 17.656C89.5836 17.428 90.1596 17.314 90.8316 17.314C91.4316 17.314 91.9536 17.416 92.3976 17.62C92.8536 17.824 93.2256 18.106 93.5136 18.466C93.8136 18.826 94.0356 19.252 94.1796 19.744C94.3236 20.236 94.3956 20.776 94.3956 21.364H88.1496ZM90.7596 17.908C90.3396 17.908 89.9736 17.992 89.6616 18.16C89.3616 18.328 89.1036 18.544 88.8876 18.808C88.6716 19.072 88.5036 19.372 88.3836 19.708C88.2636 20.044 88.1856 20.38 88.1496 20.716H93.2796C93.2676 20.368 93.2016 20.026 93.0816 19.69C92.9736 19.354 92.8176 19.054 92.6136 18.79C92.4096 18.526 92.1516 18.316 91.8396 18.16C91.5276 17.992 91.1676 17.908 90.7596 17.908ZM97.6599 18.052V22.39C97.6599 22.702 97.6659 22.984 97.6779 23.236C97.6899 23.488 97.7199 23.698 97.7679 23.866C97.8159 24.034 97.8879 24.166 97.9839 24.262C98.0799 24.346 98.2119 24.388 98.3799 24.388C98.6319 24.388 98.8659 24.268 99.0819 24.028C99.3099 23.788 99.4539 23.5 99.5139 23.164H99.6759V24.478C99.5679 24.478 99.4779 24.514 99.4059 24.586C99.3099 24.67 99.1719 24.76 98.9919 24.856C98.8239 24.952 98.5659 25 98.2179 25C97.7859 25 97.4499 24.916 97.2099 24.748C96.9699 24.58 96.7959 24.358 96.6879 24.082C96.5799 23.806 96.5139 23.5 96.4899 23.164C96.4779 22.828 96.4719 22.486 96.4719 22.138V18.052H95.4639V17.44H96.4719V15.838C96.4719 15.634 96.4419 15.448 96.3819 15.28C96.3339 15.1 96.1599 15.004 95.8599 14.992V14.812L97.6599 14.236V17.44H99.6759V18.052H97.6599Z" fill="#9D8665"/>
<path opacity="0.9" fill-rule="evenodd" clip-rule="evenodd" d="M385 37.0002H15V35.0002H385V37.0002Z" fill="#740C11"/>
<path d="M315 95H280V120H315V95Z" fill="#030303"/>
<path d="M315.5 119.5V95.5H349.5V119.5H315.5Z" fill="white" stroke="#030303"/>
<path d="M385 95H350V120H385V95Z" fill="#030303"/>
<path d="M336.448 114H328.063V112.831L332.493 107.909C333.149 107.165 333.601 106.562 333.847 106.099C334.099 105.63 334.225 105.146 334.225 104.648C334.225 103.98 334.022 103.433 333.618 103.005C333.214 102.577 332.675 102.363 332.001 102.363C331.192 102.363 330.562 102.595 330.111 103.058C329.666 103.515 329.443 104.153 329.443 104.974H327.817C327.817 103.796 328.195 102.844 328.951 102.117C329.713 101.391 330.729 101.027 332.001 101.027C333.19 101.027 334.131 101.341 334.822 101.968C335.514 102.589 335.859 103.418 335.859 104.455C335.859 105.715 335.057 107.215 333.451 108.955L330.023 112.673H336.448V114Z" fill="#030303"/>
<path d="M362 107H372V109H362V107Z" fill="white"/>
<path d="M366 113L366 103L368 103L368 113H366Z" fill="white"/>
<rect x="293" y="107" width="10" height="2.00236" fill="white"/>
<path d="M315.5 76.5V52.5H349.5V76.5H315.5Z" fill="white" stroke="#030303"/>
<path d="M315 52H280V77H315V52Z" fill="#030303"/>
<path d="M385 52H350V77H385V52Z" fill="#030303"/>
<path d="M336.448 71H328.063V69.8311L332.493 64.9092C333.149 64.165 333.601 63.5615 333.847 63.0986C334.099 62.6299 334.225 62.1465 334.225 61.6484C334.225 60.9805 334.022 60.4326 333.618 60.0049C333.214 59.5771 332.675 59.3633 332.001 59.3633C331.192 59.3633 330.562 59.5947 330.111 60.0576C329.666 60.5146 329.443 61.1533 329.443 61.9736H327.817C327.817 60.7959 328.195 59.8438 328.951 59.1172C329.713 58.3906 330.729 58.0273 332.001 58.0273C333.19 58.0273 334.131 58.3408 334.822 58.9678C335.514 59.5889 335.859 60.418 335.859 61.4551C335.859 62.7148 335.057 64.2148 333.451 65.9551L330.023 69.6729H336.448V71Z" fill="#030303"/>
<path d="M362 64H372V66H362V64Z" fill="white"/>
<path d="M366 70L366 60L368 60L368 70H366Z" fill="white"/>
<rect x="293" y="64" width="10" height="2.00236" fill="white"/>
</svg>
